<?xml version="1.0" encoding="UTF-8"?><svg id="Layer_1" xmlns="http://www.w3.org/2000/svg" viewBox="0 0 3359 634"><defs><style>.cls-1{fill:#b37c8b;}.cls-2{fill:#265d72;}</style></defs><path class="cls-2" d="M108.67,159.14c-8.25,0-16.24-4.39-20.47-12.13-6.17-11.29-2.01-25.44,9.28-31.61L267.06,22.79c11.29-6.17,25.44-2.01,31.61,9.28s2.01,25.44-9.28,31.61l-169.58,92.61c-3.54,1.94-7.37,2.85-11.15,2.85h.01Z"/><path class="cls-2" d="M570.46,228.68l-71.5,39.86-32.16-55.97,126.35-70.44c11.24-6.26,15.27-20.45,9-31.69s-20.46-15.27-31.69-9l-126.88,70.73-46.68-81.23c-6.41-11.15-20.65-15-31.81-8.59s-15,20.65-8.59,31.81l191.76,333.72c4.31,7.5,12.15,11.69,20.22,11.69,3.94,0,7.93-1,11.58-3.1,11.16-6.41,15-20.65,8.59-31.81l-66.49-115.72,70.98-39.57c11.24-6.26,15.27-20.45,9-31.69s-20.45-15.27-31.69-9h.01Z"/><path class="cls-2" d="M415.48,579.63L210.25,207.13c-6.21-11.27-20.38-15.37-31.65-9.16s-15.37,20.38-9.16,31.65l60.04,108.97-106.5,59.37c-11.24,6.26-15.27,20.45-9,31.69,4.26,7.65,12.19,11.96,20.37,11.96,3.84,0,7.73-.95,11.32-2.95l106.3-59.26,29.92,54.31-189,105.36c-11.24,6.26-15.27,20.45-9,31.69,4.26,7.65,12.19,11.96,20.37,11.96,3.84,0,7.73-.95,11.32-2.95l188.79-105.25,70.3,127.6c4.25,7.7,12.21,12.06,20.43,12.06,3.8,0,7.66-.93,11.22-2.9,11.27-6.21,15.37-20.38,9.16-31.65h0Z"/><path class="cls-1" d="M525.6,613.75c-8.2,0-16.15-4.34-20.4-12.02l-237.74-429.34c-6.23-11.26-2.16-25.43,9.09-31.67,11.26-6.24,25.43-2.16,31.67,9.09l237.74,429.34c6.23,11.26,2.16,25.43-9.09,31.67-3.58,1.98-7.45,2.92-11.26,2.92h-.01Z"/><path class="cls-1" d="M42.93,301.18c-8.17,0-16.11-4.31-20.37-11.96-6.26-11.24-2.23-25.43,9-31.69L434.8,32.74c11.24-6.27,25.43-2.23,31.69,9,6.26,11.24,2.23,25.43-9,31.69L54.25,298.22c-3.59,2-7.48,2.95-11.32,2.95h0Z"/><path class="cls-2" d="M921.92,564.76c-47.61,0-75.14-9.67-99.68-34.22-23.81-23.06-35.71-55.05-35.71-94.48l-.74-322.86h72.16v107.87h82.57v69.18h-82.57v138.37c0,47.61,17.11,69.93,67.7,69.93h15.62v66.21h-19.35Z"/><path class="cls-2" d="M1056.56,422.67c11.9,41.66,52.07,77.37,99.68,77.37,29.01,0,58.77-10.42,82.57-39.43l58.03,41.66c-38.68,49.84-92.99,67.7-141.34,67.7-24.55,0-48.35-5.21-70.67-14.88-61.75-27.52-104.89-89.27-104.89-162.92,0-98.2,78.85-178.54,177.05-178.54,46.87,0,87.78,16.37,122.75,48.35,32.73,29.76,55.05,77.37,55.05,127.95,0,14.13,0,21.57-2.23,32.73h-276ZM1156.99,283.56c-45.38,0-87.78,32.73-99.68,77.37h200.86c-12.65-44.63-53.56-77.37-101.17-77.37h-.01Z"/><path class="cls-2" d="M1607.79,564.76l-78.85-115.31-80.34,115.31h-87.04l124.23-177.79-113.82-166.64h84.81l72.16,104.15,72.9-104.15h86.29l-115.31,166.64,121.26,177.79h-86.29,0Z"/><path class="cls-2" d="M1883.03,564.76c-47.61,0-75.13-9.67-99.68-34.22-23.8-23.06-35.71-55.05-35.71-94.48l-.74-322.86h72.16v107.87h82.57v69.18h-82.57v138.37c0,47.61,17.11,69.93,67.7,69.93h15.62v66.21h-19.35Z"/><path class="cls-1" d="M2223.74,564.76v-41.66c-29.76,34.96-64.72,46.87-107.12,46.87-98.2,0-176.31-78.85-176.31-177.79s78.11-178.54,177.05-178.54c63.23,0,120.51,32.73,152.5,86.29,20.09,33.48,25.29,62.49,25.29,117.54v147.29h-71.42.01ZM2118.84,283.56c-58.77,0-107.12,49.1-107.12,108.61s49.1,107.87,105.64,107.87,105.64-47.61,105.64-105.64c0-62.49-46.87-110.84-104.15-110.84h0Z"/><path class="cls-1" d="M2420.12,166.02c-23.8,0-42.4-19.34-42.4-42.4s19.34-42.4,42.4-42.4c24.55,0,42.4,19.34,42.4,42.4s-19.34,42.4-42.4,42.4ZM2384.41,564.76V220.33h71.42v344.43h-71.42Z"/><path class="cls-2" d="M2552.53,564.76V50.71h71.42v514.04h-71.42Z"/><path class="cls-2" d="M2772.73,422.67c11.9,41.66,52.07,77.37,99.68,77.37,29.01,0,58.77-10.42,82.57-39.43l58.03,41.66c-38.68,49.84-92.99,67.7-141.34,67.7-24.55,0-48.35-5.21-70.67-14.88-61.75-27.52-104.89-89.27-104.89-162.92,0-98.2,78.85-178.54,177.05-178.54,46.87,0,87.78,16.37,122.75,48.35,32.73,29.76,55.05,77.37,55.05,127.95,0,14.13,0,21.57-2.23,32.73h-276ZM2873.15,283.56c-45.38,0-87.78,32.73-99.68,77.37h200.86c-12.65-44.63-53.56-77.37-101.17-77.37h0Z"/><path class="cls-2" d="M3329.16,236.69l-20.83,56.54c-26.78-12.65-47.61-17.85-71.42-17.85-31.99,0-55.79,14.13-55.79,38.68,0,21.57,16.37,31.99,49.84,43.15,53.56,17.11,88.53,38.68,96.71,92.25,5.21,40.92-8.93,78.85-43.89,101.92-20.83,14.13-47.61,21.57-78.11,21.57-32.73,0-75.88-8.93-110.84-29.01l23.8-58.02c33.48,17.85,51.33,25.29,80.34,25.29,26.04,0,46.12-8.93,54.31-27.52,9.67-24.55,1.49-44.63-40.17-58.77-14.13-5.21-31.99-11.9-52.82-23.06-32.73-17.85-51.33-43.89-51.33-82.57,0-60.26,49.84-104.89,123.49-104.89,24.55,0,63.98,5.21,96.71,22.32v-.03Z"/></svg>